<?xml version="1.0" standalone="no"?>
<!DOCTYPE svg PUBLIC "-//W3C//DTD SVG 20010904//EN"
 "http://www.w3.org/TR/2001/REC-SVG-20010904/DTD/svg10.dtd">
<svg version="1.0" xmlns="http://www.w3.org/2000/svg"
 width="64.000000pt" height="64.000000pt" viewBox="0 0 64.000000 64.000000"
 preserveAspectRatio="xMidYMid meet">

<g transform="translate(0.000000,64.000000) scale(0.100000,-0.100000)"
fill="#000000" stroke="none">
<path d="M25 615 c-23 -22 -25 -31 -25 -125 0 -94 2 -103 25 -125 22 -23 31
-25 125 -25 94 0 103 2 125 25 23 22 25 31 25 125 0 94 -2 103 -25 125 -22 23
-31 25 -125 25 -94 0 -103 -2 -125 -25z m223 -27 c16 -16 16 -180 0 -196 -16
-16 -180 -16 -196 0 -16 16 -16 180 0 196 7 7 44 12 98 12 54 0 91 -5 98 -12z"/>
<path d="M365 615 c-23 -22 -25 -31 -25 -125 0 -94 2 -103 25 -125 22 -23 31
-25 125 -25 94 0 103 2 125 25 23 22 25 31 25 125 0 94 -2 103 -25 125 -22 23
-31 25 -125 25 -94 0 -103 -2 -125 -25z m223 -27 c16 -16 16 -180 0 -196 -16
-16 -180 -16 -196 0 -16 16 -16 180 0 196 7 7 44 12 98 12 54 0 91 -5 98 -12z"/>
<path d="M25 275 c-23 -22 -25 -31 -25 -125 0 -94 2 -103 25 -125 22 -23 31
-25 125 -25 94 0 103 2 125 25 23 22 25 31 25 125 0 94 -2 103 -25 125 -22 23
-31 25 -125 25 -94 0 -103 -2 -125 -25z m223 -27 c16 -16 16 -180 0 -196 -16
-16 -180 -16 -196 0 -16 16 -16 180 0 196 16 16 180 16 196 0z"/>
<path d="M365 275 c-23 -22 -25 -31 -25 -125 0 -94 2 -103 25 -125 22 -23 31
-25 125 -25 94 0 103 2 125 25 23 22 25 31 25 125 0 94 -2 103 -25 125 -22 23
-31 25 -125 25 -94 0 -103 -2 -125 -25z m223 -27 c16 -16 16 -180 0 -196 -16
-16 -180 -16 -196 0 -16 16 -16 180 0 196 16 16 180 16 196 0z"/>
</g>
</svg>
